<svg width="122" height="110" viewBox="0 0 122 110" fill="none" xmlns="http://www.w3.org/2000/svg">
<path d="M64.192 85.3691V82.6143C64.192 62.3886 64.2727 42.1629 64.1113 21.9335C64.0844 18.4676 65.314 15.884 67.5234 13.4232C73.6137 6.64412 81.4062 2.80968 90.3783 1.20145C94.264 0.571426 98.1876 0.184699 102.125 0.0436774C105.883 -0.149906 107.308 1.36153 107.324 5.07311C107.324 9.8494 107.324 14.6257 107.324 19.402C107.324 34.9742 107.239 50.5465 107.381 66.1188C107.42 70.1096 105.21 71.9077 101.414 71.8667C92.6607 71.7699 84.265 73.3558 76.4379 77.127C72.9336 78.8096 69.8058 81.222 66.5359 83.3588C65.8289 83.8242 65.2333 84.4682 64.192 85.3691Z" fill="#7CEEC6"/>
<path d="M57.245 84.9225C53.9059 82.6367 50.8396 80.2021 47.4582 78.3072C40.9261 74.644 33.7368 72.8347 26.2325 72.2279C24.0154 72.0492 21.7906 71.9562 19.5697 71.8891C16.1115 71.7886 14.2363 70.0278 14.2363 66.7071C14.2363 46.0607 14.2363 25.4131 14.2363 4.76421C14.2363 1.4733 15.7733 -0.0753618 19.1547 0.00281603C29.3795 0.188954 39.1355 2.05033 47.6888 7.88016C51.3572 10.3798 54.4535 13.5862 56.7839 17.2987C57.1515 17.9484 57.3369 18.68 57.3218 19.4207C57.3526 40.9978 57.3602 62.5761 57.3449 84.1556C57.3277 84.413 57.2944 84.6691 57.245 84.9225V84.9225Z" fill="#7CEEC6"/>
<path d="M50.8895 88.7086C47.001 88.2545 43.5428 87.629 40.0653 87.4987C34.2594 87.2791 28.4111 87.026 22.6321 87.4355C16.7839 87.8524 10.9971 89.0437 5.18348 89.9223C2.41691 90.3429 0.23055 88.7198 0.0269 86.0171C2.81419e-06 85.6448 0 85.2725 0 84.9003C0 63.1222 0 41.3453 0 19.5697C0 15.9251 1.94813 14.2797 5.69453 14.5477C6.78963 14.6259 7.36984 15.0168 7.35447 16.1187C7.35447 16.8 7.37368 17.4812 7.37368 18.1662C7.37368 34.1716 7.37368 50.1794 7.37368 66.1897C7.37368 69.328 8.0538 72.2168 10.3093 74.6106C12.707 77.1532 15.6888 78.2179 19.2238 78.2291C27.1278 78.2514 34.7512 79.6363 41.9558 82.8937C45.2324 84.3621 48.2477 86.3248 50.8895 88.7086V88.7086Z" fill="#5899E2"/>
<path d="M19.8153 98.4509L16.311 103.354C15.0737 101.586 14.0055 100.037 12.9142 98.4882L12.3379 98.585C12.3379 100.323 12.3609 102.066 12.3379 103.797C12.3379 104.642 12.4301 105.803 11.1044 105.58C10.6433 105.502 10.067 104.445 10.0401 103.815C9.92479 101.035 9.92479 98.2313 10.0401 95.4653C10.067 94.8101 10.6856 93.6523 11.0391 93.6523C11.4516 93.6698 11.8563 93.7667 12.2297 93.9373C12.6031 94.108 12.9377 94.349 13.2139 94.6463C14.2898 95.912 15.1352 97.3676 16.334 99.1434C17.4483 97.5054 18.3705 96.2136 19.2274 94.8808C19.8499 93.9055 20.676 93.053 21.8249 93.6523C22.3705 93.939 22.6702 95.0484 22.6971 95.8003C22.797 98.5217 22.8047 101.247 22.6741 103.964C22.6472 104.549 21.9056 105.1 21.5213 105.666C21.1371 105.115 20.5223 104.586 20.4762 104.013C20.3417 102.203 20.4262 100.379 20.4262 98.5626L19.8153 98.4509Z" fill="#262727"/>
<path d="M88.8797 97.0139C89.4676 96.9283 90.2745 96.7571 91.0891 96.7087C93.8288 96.5374 95.9114 98.3616 96.0574 101.012C96.2035 103.663 94.2784 105.852 91.6655 105.878C91.0238 105.878 90.3821 105.364 89.7443 105.085C90.2592 104.579 90.6972 103.763 91.3043 103.622C92.8413 103.25 93.7712 102.505 93.5791 100.949C93.4177 99.6608 92.4878 99.0354 91.1391 99.0875C89.4177 99.1619 88.8605 100.238 88.8336 101.693C88.8029 103.611 88.9182 105.539 88.7452 107.445C88.6838 108.111 87.9768 108.722 87.5502 109.359C87.166 108.744 86.5205 108.145 86.4974 107.516C86.3821 104.612 86.4705 101.701 86.4359 98.7934C86.4129 97.2931 87.0161 96.5821 88.8797 97.0139Z" fill="#262727"/>
<path d="M70.9242 97.0773C71.0049 96.2136 70.9703 95.4058 71.1893 94.6687C71.3199 94.2443 71.8541 93.9242 72.2076 93.5705C72.5918 93.9428 73.3411 94.315 73.3603 94.7171C73.4525 97.9931 73.4525 101.27 73.3603 104.549C73.3603 104.921 72.5918 105.293 72.2076 105.666C71.8617 105.293 71.2931 104.966 71.2162 104.549C71.0356 103.585 71.1432 102.576 71.051 101.589C70.9165 100.204 70.1941 99.2179 68.6763 99.1435C68.3865 99.1111 68.093 99.1359 67.8133 99.2165C67.5337 99.2971 67.2738 99.4317 67.0494 99.6123C66.825 99.7929 66.6406 100.016 66.5075 100.267C66.3744 100.519 66.2952 100.794 66.2748 101.076C66.0558 102.565 66.9933 103.272 68.3152 103.808C68.9991 104.084 69.5025 104.776 70.0904 105.297C69.2489 105.543 68.3651 106.083 67.5736 105.978C65.172 105.658 63.6312 103.402 63.8694 100.904C63.9475 99.7823 64.4716 98.7332 65.3315 97.9779C66.1914 97.2225 67.3202 96.8196 68.4804 96.854C69.2258 96.854 69.9713 96.9843 70.9242 97.0773Z" fill="#262727"/>
<path d="M106.455 101.399C106.511 102.448 106.496 103.499 106.409 104.545C106.351 104.951 105.764 105.29 105.414 105.662C105.03 105.29 104.357 104.94 104.284 104.504C104.1 103.417 104.196 102.271 104.157 101.172C104.111 99.8359 103.389 99.1025 102.002 99.0802C100.615 99.0578 99.7847 99.687 99.6233 100.997C99.4619 102.308 100.134 103.119 101.414 103.469C101.721 103.551 102.148 103.469 102.34 103.626C102.741 104.041 103.106 104.488 103.431 104.962C103.008 105.241 102.613 105.707 102.155 105.759C101.33 105.906 100.478 105.8 99.7178 105.458C98.9571 105.115 98.3252 104.551 97.9095 103.845C97.3888 103.093 97.105 102.209 97.0927 101.303C97.0804 100.397 97.3402 99.5071 97.8404 98.7414C98.7587 97.2188 100.246 96.6008 102.033 96.6008C102.098 96.6008 102.159 96.6008 102.225 96.6231C106.497 97.0475 106.497 97.0475 106.455 101.399Z" fill="#262727"/>
<path d="M34.4322 97.0884C34.0979 97.9372 33.8327 98.7376 33.4754 99.5008C32.3726 101.872 31.2737 104.251 30.094 106.574C29.0412 108.67 27.7885 109.295 25.0181 108.942C25.5215 108.16 25.7866 107.229 26.3553 106.961C27.8078 106.291 27.8078 105.431 27.2314 104.251C26.3502 102.462 25.4895 100.662 24.6493 98.853C24.3957 98.3095 24.2189 97.7362 24.0076 97.1629C25.9288 96.2397 26.5782 97.3044 27.1622 98.611C27.6848 99.7874 28.315 100.927 28.8721 102.084L29.4639 102.166C30.1478 100.83 30.8856 99.5157 31.4965 98.1494C32.0652 96.8874 32.9182 96.5412 34.4322 97.0884Z" fill="#262727"/>
<path d="M74.6052 96.8539C78.6782 96.7906 77.7906 100.677 80.1192 102.144C80.7993 100.822 81.5409 99.538 82.1518 98.168C82.7205 96.906 83.5581 96.504 85.1067 97.1033C84.88 97.7325 84.7224 98.3616 84.4342 98.9461C83.2431 101.481 82.0481 104.016 80.8031 106.533C79.7272 108.707 78.2671 109.426 75.6388 108.852C76.1998 108.108 76.5264 107.233 77.1451 106.935C78.5053 106.284 78.4823 105.446 77.952 104.359C77.0836 102.561 76.2229 100.763 75.3852 98.9536C75.1124 98.4063 74.9434 97.8181 74.6052 96.8539Z" fill="#262727"/>
<path d="M62.628 101.392C62.628 105.353 62.628 105.353 58.6319 105.751C55.7078 106.045 54.0209 104.634 53.8711 101.76C53.783 100.52 53.8074 99.2742 53.9441 98.0377C54.0017 97.6208 54.7126 97.2932 55.0968 96.9209C55.435 97.2932 56.0113 97.6357 56.069 98.0377C56.2304 99.136 56.1266 100.271 56.1996 101.388C56.2803 102.565 56.8221 103.451 58.1823 103.443C59.604 103.443 59.9767 102.486 59.9883 101.303C59.9883 100.498 59.9883 99.6906 60.0113 98.8865C60.0459 97.9782 59.8653 96.8539 61.337 96.9023C62.8086 96.9507 62.5742 98.075 62.6165 98.9759C62.6588 99.78 62.628 100.588 62.628 101.392Z" fill="#262626"/>
<path fill-rule="evenodd" clip-rule="evenodd" d="M121.525 19.0297L121.525 19.0299V26.103L121.522 26.105V32.4316C121.23 32.5769 120.935 32.7154 120.64 32.8538C119.982 33.1624 119.324 33.4708 118.709 33.8537C117.623 34.5324 116.575 35.2594 115.528 35.9862L115.528 35.9862L115.528 35.9863L115.528 35.9864L115.527 35.9864L115.527 35.9865L115.527 35.9866L115.527 35.9869L115.526 35.9872L115.526 35.9875L115.525 35.9878L115.525 35.9882L115.524 35.9885C115.091 36.2894 114.657 36.5903 114.221 36.8877L114.225 30.1979L117.472 28.3887L120.378 26.7485L117.475 28.3813L114.225 30.1979L114.224 30.198V23.4971C115.339 22.827 116.454 22.1544 117.571 21.4793C118.34 21.0051 119.106 20.5296 119.872 20.0544L120.425 19.7117C119.475 20.3005 118.525 20.8891 117.572 21.4719C116.457 22.1494 115.342 22.822 114.225 23.4896C114.217 22.7225 114.211 21.9551 114.205 21.1874L114.205 21.1856C114.192 19.4316 114.179 17.6764 114.136 15.9212C114.109 14.8863 114.551 14.5662 115.596 14.5178C119.562 14.3354 121.379 15.6793 121.525 19.0297ZM121.521 68.5424L121.525 62.6009C121.155 62.8388 120.785 63.0782 120.414 63.3176L120.414 63.3182L120.413 63.3187L120.412 63.3192L120.411 63.3198L120.408 63.3219L120.406 63.3233C119.424 63.9585 118.441 64.5944 117.444 65.2068C116.718 65.6536 115.973 66.0757 115.23 66.4974C114.895 66.687 114.561 66.8765 114.228 67.0682C114.128 70.3113 112.716 73.3865 110.297 75.6305C110.846 75.3054 111.397 74.9827 111.948 74.6598C113.227 73.9107 114.506 73.161 115.758 72.3805C116.636 71.8247 117.504 71.2499 118.368 70.6688C117.506 71.2499 116.642 71.825 115.769 72.3805C114.529 73.1618 113.261 73.902 111.993 74.642L111.993 74.6421C111.431 74.9704 110.869 75.2987 110.309 75.6305L105.314 78.0167C105.147 78.2308 104.992 78.4576 104.836 78.6844C104.689 78.8992 104.541 79.114 104.385 79.3183C104.541 79.1147 104.687 78.9001 104.834 78.6855L104.836 78.6831C104.992 78.4552 105.147 78.2274 105.314 78.013C104.979 78.0339 104.643 78.0515 104.308 78.0691L104.307 78.0692C103.565 78.1081 102.822 78.1472 102.079 78.2215C100.232 78.4093 98.3887 78.6084 96.5466 78.8074L96.5448 78.8076H96.5447C94.7352 79.0031 92.9266 79.1985 91.1161 79.383L91.1137 79.3851C83.4614 80.5593 76.7073 83.537 71.02 88.768L82.6742 87.0965L95.727 87.063C95.8889 86.8477 96.0394 86.6195 96.1898 86.3913C96.5179 85.8938 96.8457 85.3966 97.2909 85.0341C98.355 84.1637 99.4518 83.3286 100.549 82.4936C101.614 81.6823 102.68 80.8709 103.716 80.027C103.909 79.8712 104.083 79.69 104.244 79.4946C104.083 79.6904 103.909 79.8725 103.715 80.0307C102.68 80.8745 101.614 81.6858 100.549 82.497L100.548 82.4974L100.548 82.4976L100.548 82.4977C99.4511 83.3326 98.3546 84.1675 97.2906 85.0378C96.845 85.4083 96.5169 85.9033 96.1885 86.3988C96.0384 86.6253 95.8883 86.8519 95.7267 87.0668C97.9566 87.3734 100.186 87.6749 102.416 87.9763L102.418 87.9765L102.421 87.977C106.955 88.5899 111.488 89.2026 116.015 89.8588C119.285 90.3353 121.51 88.8202 121.552 85.6409C121.6 82.0414 121.575 78.4418 121.55 74.8423V74.8417C121.536 72.7419 121.521 70.6422 121.521 68.5424ZM121.525 44.7167V38.388C121.021 38.6999 120.517 39.0123 120.014 39.3247L120.011 39.3263C119.2 39.8299 118.388 40.3333 117.575 40.8339C116.873 41.2623 116.166 41.6879 115.459 42.1132L115.458 42.1139L115.457 42.1146C115.047 42.3613 114.637 42.6081 114.228 42.8553V48.8043C114.636 48.5765 115.044 48.3493 115.453 48.1221L115.456 48.1205L115.459 48.1189L115.46 48.1178L115.461 48.1175C116.131 47.7444 116.802 47.3711 117.471 46.995L120.424 45.3359L117.468 47.0025C116.798 47.3789 116.127 47.7524 115.456 48.1257L115.455 48.126L115.455 48.1263C115.045 48.3546 114.634 48.5829 114.225 48.8118L114.221 55.133C114.714 54.8116 115.204 54.4867 115.692 54.1623C116.607 53.5549 117.518 52.9496 118.448 52.3744C119.154 51.9306 119.898 51.5367 120.644 51.1417L120.645 51.1416C120.937 50.9866 121.23 50.8315 121.522 50.6731V44.7188L121.525 44.7167ZM121.521 62.5859C121.128 62.8388 120.736 63.0932 120.344 63.3477L120.344 63.3478L120.344 63.3478L120.344 63.3478C119.386 63.9699 118.428 64.5921 117.441 65.1918C116.714 65.6386 115.97 66.0606 115.226 66.4823L115.226 66.4825C114.891 66.6721 114.557 66.8615 114.224 67.0532V61.0968C114.226 61.096 114.227 61.0952 114.228 61.0943L114.224 55.1405C114.587 54.9017 114.949 54.6618 115.31 54.422C116.347 53.7346 117.383 53.047 118.451 52.3819C119.125 51.9649 119.826 51.5919 120.523 51.2206C120.859 51.0418 121.194 50.8634 121.525 50.6806V56.637C121.524 56.6378 121.523 56.6386 121.521 56.6393V62.5859ZM120.43 39.0662C120.795 38.8401 121.16 38.6139 121.525 38.388V32.4428C121.233 32.5885 120.936 32.7273 120.639 32.8661L120.639 32.8661L120.639 32.8662C119.98 33.1744 119.322 33.4825 118.712 33.8649C117.627 34.5469 116.572 35.2777 115.518 36.0079L115.517 36.008L115.517 36.0082C115.087 36.3063 114.657 36.6043 114.224 36.8989V42.8516C114.634 42.6041 115.044 42.3571 115.455 42.1101C116.161 41.6845 116.869 41.2588 117.571 40.8302C118.527 40.2461 119.478 39.6563 120.43 39.0662Z" fill="#5899E2"/>
<path d="M45.9483 97.8255C45.3797 100.346 43.4738 98.2946 42.1059 99.2774C42.6758 99.6367 43.2645 99.9672 43.8696 100.268C46.1481 101.236 47.0089 102.591 46.3057 104.195C45.6525 105.684 43.4162 106.358 41.4796 105.506C40.98 105.286 40.7111 104.605 40.3268 104.136C40.888 103.872 41.4733 103.661 42.0751 103.503C42.5799 103.482 43.0852 103.527 43.5775 103.637L43.7735 103.082C43.3611 102.81 42.9326 102.561 42.4901 102.338C41.1107 101.742 39.6006 101.087 39.7773 99.4003C39.8588 98.9067 40.0498 98.4362 40.337 98.021C40.6242 97.6059 41.0009 97.2559 41.4411 96.9954C42.1801 96.6256 43.0256 96.5065 43.8426 96.657C44.6596 96.8075 45.401 97.2189 45.9483 97.8255Z" fill="#262727"/>
<path d="M47.7775 99.4411C47.7775 98.395 47.643 97.3229 47.8313 96.3066C47.9274 95.8003 48.5998 95.402 49.034 94.9552C49.3606 95.3685 49.7218 95.7668 50.0061 96.2061C50.4134 96.8315 50.7362 97.5016 51.1589 98.1233C51.6622 98.8902 52.1464 99.5193 50.9859 100.256C50.7169 100.467 50.5017 100.736 50.3571 101.041C50.2125 101.345 50.1423 101.678 50.1521 102.014C50.229 102.561 50.986 103.015 51.424 103.525C51.862 104.035 52.1925 104.478 52.5767 104.955C52.0119 105.215 51.447 105.699 50.8899 105.699C49.107 105.666 48.058 104.623 47.8543 102.952C47.7742 101.783 47.7652 100.611 47.8274 99.4411H47.7775Z" fill="#262728"/>
<path d="M110.701 99.6274C110.701 101.176 110.793 102.736 110.651 104.273C110.605 104.768 109.94 105.208 109.56 105.673C109.176 105.204 108.48 104.746 108.465 104.27C108.365 101.172 108.365 98.07 108.465 94.9627C108.465 94.4862 109.183 94.0283 109.564 93.563C109.948 94.0321 110.605 94.4751 110.651 94.9702C110.793 96.5189 110.701 98.0787 110.701 99.6274Z" fill="#262626"/>
</svg>
