<svg width="96" height="96" viewBox="0 0 96 96" fill="none" xmlns="http://www.w3.org/2000/svg">
<path d="M52.8 24C58.102 24 62.4001 19.7019 62.4001 14.4C62.4001 9.09805 58.102 4.79999 52.8 4.79999C47.4981 4.79999 43.2001 9.09805 43.2001 14.4L43.1997 25.7626L33.6155 24.5646C28.7979 23.9624 24.289 27.0519 23.1114 31.7621L19.343 46.8358L28.6564 49.1642L32.4248 34.0905L42.1696 35.3086L38.4861 51.8841L36.2892 65.0656L20.3873 83.2392L27.6121 89.5608L43.514 71.3872C44.6882 70.0452 45.4655 68.4027 45.7586 66.6438L46.6363 61.3775L57.5997 69.6V91.2H67.1997V69.6C67.1997 66.5783 65.777 63.733 63.3597 61.92L48.5572 50.8181L51.3518 38.2426L57.7616 41.4475C60.8429 42.9882 64.5135 42.7596 67.38 40.8487L79.4623 32.7938L74.1371 24.8061L62.0549 32.861L52.7997 28.2334L52.8 24Z" fill="#6360AA"/>
</svg>
