<svg width="318" height="295" viewBox="0 0 318 295" fill="none" xmlns="http://www.w3.org/2000/svg">
<path d="M167.86 230.09V222.69C167.86 168.36 168.07 114.03 167.65 59.69C167.58 50.38 170.78 43.44 176.53 36.83C192.38 18.62 212.66 8.32002 236.01 4.00002C246.123 2.30765 256.334 1.26883 266.58 0.890017C276.36 0.370017 280.07 4.43001 280.11 14.4C280.11 27.23 280.11 40.06 280.11 52.89C280.11 94.72 279.89 136.55 280.26 178.38C280.36 189.1 274.61 193.93 264.73 193.82C241.95 193.56 220.1 197.82 199.73 207.95C190.61 212.47 182.47 218.95 173.96 224.69C172.12 225.94 170.57 227.67 167.86 230.09Z" fill="#7CEEC6"/>
<path d="M149.78 228.89C141.09 222.75 133.11 216.21 124.31 211.12C107.31 201.28 88.6001 196.42 69.0701 194.79C63.3001 194.31 57.5101 194.06 51.7301 193.88C42.7301 193.61 37.8501 188.88 37.8501 179.96C37.8501 124.5 37.8501 69.0367 37.8501 13.57C37.8501 4.72999 41.8501 0.569995 50.6501 0.779995C77.2601 1.27999 102.65 6.28 124.91 21.94C134.457 28.6545 142.515 37.2676 148.58 47.24C149.537 48.9851 150.019 50.9503 149.98 52.94C150.06 110.9 150.08 168.863 150.04 226.83C149.995 227.521 149.909 228.209 149.78 228.89Z" fill="#7CEEC6"/>
<path d="M133.24 239.06C123.12 237.84 114.12 236.16 105.07 235.81C89.9598 235.22 74.7398 234.54 59.6998 235.64C44.4798 236.76 29.4198 239.96 14.2898 242.32C7.08981 243.45 1.39981 239.09 0.869812 231.83C0.799812 230.83 0.799805 229.83 0.799805 228.83C0.799805 170.33 0.799805 111.833 0.799805 53.34C0.799805 43.55 5.86981 39.13 15.6198 39.85C18.4698 40.06 19.9798 41.11 19.9398 44.07C19.9398 45.9 19.9898 47.73 19.9898 49.57C19.9898 92.5633 19.9898 135.563 19.9898 178.57C19.9898 187 21.7598 194.76 27.6298 201.19C33.8698 208.02 41.6298 210.88 50.8298 210.91C71.3998 210.97 91.2398 214.69 109.99 223.44C118.517 227.384 126.365 232.657 133.24 239.06Z" fill="#5899E2"/>
<path d="M52.3701 265.23L43.2501 278.4C40.0301 273.65 37.2501 269.49 34.4101 265.33L32.9101 265.59C32.9101 270.26 32.9701 274.94 32.9101 279.59C32.9101 281.86 33.1501 284.98 29.7001 284.38C28.5001 284.17 27.0001 281.33 26.9301 279.64C26.6301 272.17 26.6301 264.64 26.9301 257.21C27.0001 255.45 28.6101 252.34 29.5301 252.34C30.6036 252.387 31.6569 252.647 32.6287 253.106C33.6005 253.564 34.4712 254.211 35.1901 255.01C37.9901 258.41 40.1901 262.32 43.3101 267.09C46.2101 262.69 48.6101 259.22 50.8401 255.64C52.4601 253.02 54.6101 250.73 57.6001 252.34C59.0201 253.11 59.8001 256.09 59.8701 258.11C60.1301 265.42 60.1501 272.74 59.8101 280.04C59.7401 281.61 57.8101 283.09 56.8101 284.61C55.8101 283.13 54.2101 281.71 54.0901 280.17C53.7401 275.31 53.9601 270.41 53.9601 265.53L52.3701 265.23Z" fill="#262727"/>
<path d="M232.11 261.37C233.64 261.14 235.74 260.68 237.86 260.55C244.99 260.09 250.41 264.99 250.79 272.11C251.17 279.23 246.16 285.11 239.36 285.18C237.69 285.18 236.02 283.8 234.36 283.05C235.7 281.69 236.84 279.5 238.42 279.12C242.42 278.12 244.84 276.12 244.34 271.94C243.92 268.48 241.5 266.8 237.99 266.94C233.51 267.14 232.06 270.03 231.99 273.94C231.91 279.09 232.21 284.27 231.76 289.39C231.6 291.18 229.76 292.82 228.65 294.53C227.65 292.88 225.97 291.27 225.91 289.58C225.61 281.78 225.84 273.96 225.75 266.15C225.69 262.12 227.26 260.21 232.11 261.37Z" fill="#262727"/>
<path d="M185.38 261.54C185.59 259.22 185.5 257.05 186.07 255.07C186.41 253.93 187.8 253.07 188.72 252.12C189.72 253.12 191.67 254.12 191.72 255.2C191.96 264 191.96 272.803 191.72 281.61C191.72 282.61 189.72 283.61 188.72 284.61C187.82 283.61 186.34 282.73 186.14 281.61C185.67 279.02 185.95 276.31 185.71 273.66C185.36 269.94 183.48 267.29 179.53 267.09C178.776 267.003 178.012 267.07 177.284 267.286C176.556 267.503 175.88 267.864 175.296 268.349C174.712 268.834 174.232 269.433 173.886 270.108C173.539 270.784 173.333 271.523 173.28 272.28C172.71 276.28 175.15 278.18 178.59 279.62C180.37 280.36 181.68 282.22 183.21 283.62C181.02 284.28 178.72 285.73 176.66 285.45C170.41 284.59 166.4 278.53 167.02 271.82C167.223 268.806 168.587 265.988 170.825 263.959C173.063 261.93 176.001 260.848 179.02 260.94C180.96 260.94 182.9 261.29 185.38 261.54Z" fill="#262727"/>
<path d="M277.85 273.15C277.995 275.966 277.955 278.789 277.73 281.6C277.58 282.69 276.05 283.6 275.14 284.6C274.14 283.6 272.39 282.66 272.2 281.49C271.72 278.57 271.97 275.49 271.87 272.54C271.75 268.95 269.87 266.98 266.26 266.92C262.65 266.86 260.49 268.55 260.07 272.07C259.65 275.59 261.4 277.77 264.73 278.71C265.53 278.93 266.64 278.71 267.14 279.13C268.184 280.246 269.134 281.447 269.98 282.72C268.88 283.47 267.85 284.72 266.66 284.86C264.512 285.255 262.295 284.972 260.316 284.051C258.336 283.13 256.691 281.617 255.61 279.72C254.254 277.698 253.516 275.326 253.484 272.892C253.452 270.458 254.128 268.067 255.43 266.01C257.82 261.92 261.69 260.26 266.34 260.26C266.51 260.26 266.67 260.26 266.84 260.32C277.96 261.46 277.96 261.46 277.85 273.15Z" fill="#262727"/>
<path d="M90.4098 261.57C89.5398 263.85 88.8498 266 87.9198 268.05C85.0498 274.42 82.1898 280.81 79.1198 287.05C76.3798 292.68 73.1198 294.36 65.9098 293.41C67.2198 291.31 67.9098 288.81 69.3898 288.09C73.1698 286.29 73.1698 283.98 71.6698 280.81C69.3765 276.003 67.1365 271.17 64.9498 266.31C64.2898 264.85 63.8298 263.31 63.2798 261.77C68.2798 259.29 69.9698 262.15 71.4898 265.66C72.8498 268.82 74.4898 271.88 75.9398 274.99L77.4798 275.21C79.2598 271.62 81.1798 268.09 82.7698 264.42C84.2498 261.03 86.4698 260.1 90.4098 261.57Z" fill="#262727"/>
<path d="M194.96 260.94C205.56 260.77 203.25 271.21 209.31 275.15C211.08 271.6 213.01 268.15 214.6 264.47C216.08 261.08 218.26 260 222.29 261.61C221.7 263.3 221.29 264.99 220.54 266.56C217.44 273.37 214.33 280.18 211.09 286.94C208.29 292.78 204.49 294.71 197.65 293.17C199.11 291.17 199.96 288.82 201.57 288.02C205.11 286.27 205.05 284.02 203.67 281.1C201.41 276.27 199.17 271.44 196.99 266.58C196.28 265.11 195.84 263.53 194.96 260.94Z" fill="#262727"/>
<path d="M163.79 273.13C163.79 283.77 163.79 283.77 153.39 284.84C145.78 285.63 141.39 281.84 141 274.12C140.771 270.788 140.834 267.441 141.19 264.12C141.34 263 143.19 262.12 144.19 261.12C145.07 262.12 146.57 263.04 146.72 264.12C147.14 267.07 146.87 270.12 147.06 273.12C147.27 276.28 148.68 278.66 152.22 278.64C155.92 278.64 156.89 276.07 156.92 272.89C156.92 270.73 156.92 268.56 156.98 266.4C157.07 263.96 156.6 260.94 160.43 261.07C164.26 261.2 163.65 264.22 163.76 266.64C163.87 268.8 163.79 270.97 163.79 273.13Z" fill="#262626"/>
<path fill-rule="evenodd" clip-rule="evenodd" d="M301.64 39.77C311.96 39.28 316.69 42.89 317.07 51.89L317.07 70.89L317.06 70.8957V87.89C316.302 88.2801 315.534 88.6519 314.766 89.0236L314.765 89.0242C313.053 89.8531 311.342 90.6815 309.74 91.71C306.913 93.5335 304.186 95.4868 301.46 97.4393L301.459 97.4396L301.459 97.4398L301.459 97.4401L301.458 97.4403L301.458 97.4406L301.458 97.4408C300.327 98.2505 299.197 99.06 298.06 99.86L298.07 81.89L306.52 77.03L314.072 72.6307L306.53 77.01L298.07 81.89V63.89C300.97 62.09 303.873 60.2833 306.78 58.47C308.781 57.1961 310.775 55.9189 312.768 54.6422L312.785 54.6318L312.805 54.6188L312.816 54.6116C313.929 53.8987 315.042 53.1859 316.156 52.474C315.538 52.8688 314.921 53.2638 314.303 53.6587L314.221 53.7112L314.221 53.7115L314.22 53.7119L314.22 53.7123L314.219 53.7126L314.219 53.713C311.742 55.2976 309.266 56.8816 306.78 58.45C303.88 60.27 300.977 62.0767 298.07 63.87C298.049 61.8086 298.034 59.7463 298.019 57.6833C297.985 52.9711 297.951 48.2555 297.84 43.54C297.77 40.76 298.92 39.9 301.64 39.77ZM317.06 184.89C317.06 190.531 317.098 196.171 317.136 201.811C317.201 211.481 317.266 221.15 317.14 230.82C317.03 239.36 311.24 243.43 302.73 242.15C290.952 240.388 279.16 238.743 267.364 237.097L267.363 237.097L267.362 237.097L267.361 237.096L267.359 237.096L267.358 237.096L267.357 237.096L267.356 237.096L267.355 237.095L267.353 237.095L267.352 237.095L267.34 237.093C261.538 236.284 255.734 235.474 249.93 234.65C250.351 234.073 250.741 233.464 251.132 232.856L251.132 232.856C251.987 231.525 252.84 230.195 254 229.2C256.769 226.862 259.624 224.619 262.478 222.376C265.251 220.196 268.025 218.017 270.72 215.75C271.883 214.772 272.76 213.452 273.637 212.133L273.638 212.133C274.043 211.524 274.447 210.915 274.88 210.34L287.88 203.93C289.334 203.04 290.795 202.16 292.256 201.28L292.259 201.278L292.261 201.276L292.264 201.275C295.563 199.287 298.862 197.299 302.09 195.2C304.382 193.695 306.652 192.135 308.916 190.56C306.646 192.135 304.368 193.694 302.06 195.2C298.803 197.297 295.473 199.31 292.145 201.323L292.14 201.326C290.708 202.192 289.276 203.058 287.85 203.93C294.145 197.902 297.819 189.642 298.08 180.93C298.945 180.415 299.815 179.906 300.685 179.397L300.686 179.397C302.622 178.264 304.56 177.13 306.45 175.93C309.043 174.286 311.598 172.579 314.152 170.874L314.152 170.874L314.153 170.873L314.154 170.873L314.154 170.872L314.155 170.872L314.156 170.872L314.156 170.871L314.157 170.871L314.157 170.871L314.157 170.87L314.158 170.87C315.128 170.222 316.098 169.574 317.07 168.93L317.06 184.89ZM273.636 212.13C274.041 211.518 274.447 210.906 274.88 210.33C274.009 210.386 273.136 210.433 272.263 210.481L272.26 210.481C270.329 210.586 268.395 210.69 266.46 210.89C261.652 211.395 256.854 211.93 252.059 212.464C247.349 212.99 242.642 213.515 237.93 214.01L237.924 214.016C218.009 217.17 200.431 225.168 185.63 239.22L215.96 234.73L249.93 234.64C250.351 234.062 250.743 233.449 251.135 232.836C251.988 231.499 252.841 230.164 254 229.19C256.769 226.852 259.623 224.609 262.478 222.366L262.478 222.366C265.251 220.186 268.025 218.007 270.72 215.74C271.882 214.776 272.759 213.453 273.636 212.13ZM317.07 120.89V103.89C315.756 104.729 314.443 105.57 313.131 106.41C311.018 107.763 308.906 109.115 306.79 110.46C304.963 111.611 303.124 112.753 301.286 113.895L301.281 113.898C300.213 114.562 299.145 115.225 298.08 115.89V131.87C299.146 131.256 300.213 130.642 301.281 130.029C303.028 129.026 304.776 128.022 306.52 127.01L313.997 122.672L306.51 127.03C304.771 128.039 303.028 129.04 301.286 130.041L301.273 130.048L301.265 130.053C300.199 130.665 299.134 131.277 298.07 131.89L298.06 148.87C299.344 148.007 300.618 147.134 301.889 146.263L301.889 146.262C304.27 144.631 306.642 143.005 309.06 141.46C310.898 140.268 312.835 139.21 314.777 138.149L314.777 138.149C315.539 137.732 316.302 137.316 317.06 136.89V120.896L317.07 120.89ZM313.995 170.937C311.502 172.608 309.009 174.279 306.44 175.89C304.55 177.09 302.613 178.224 300.677 179.356L300.676 179.357C299.805 179.866 298.935 180.375 298.07 180.89V164.89C298.073 164.888 298.077 164.886 298.08 164.884L298.07 148.89C299.014 148.248 299.955 147.604 300.896 146.96C303.593 145.113 306.29 143.267 309.07 141.48C310.825 140.36 312.648 139.358 314.462 138.361C315.336 137.88 316.208 137.401 317.07 136.91V152.91C317.066 152.912 317.063 152.914 317.06 152.916V168.89C316.037 169.568 315.019 170.25 314.002 170.932L313.995 170.937ZM314.251 105.692C315.19 105.091 316.13 104.49 317.07 103.89V87.92C316.309 88.3113 315.536 88.6843 314.764 89.0573C313.05 89.8851 311.336 90.7128 309.75 91.74C306.924 93.5719 304.179 95.5349 301.435 97.4965L301.432 97.4985L301.431 97.4992C300.312 98.2994 299.194 99.0993 298.07 99.89V115.88C299.134 115.216 300.2 114.553 301.267 113.891L301.272 113.888C303.111 112.745 304.952 111.601 306.78 110.45C309.267 108.881 311.743 107.297 314.22 105.712L314.221 105.712L314.221 105.711L314.251 105.692Z" fill="#5899E2"/>
<path d="M120.38 263.55C118.9 270.32 113.94 264.81 110.38 267.45C111.863 268.415 113.395 269.303 114.97 270.11C120.9 272.71 123.14 276.35 121.31 280.66C119.61 284.66 113.79 286.47 108.75 284.18C107.45 283.59 106.75 281.76 105.75 280.5C107.211 279.793 108.734 279.224 110.3 278.8C111.614 278.744 112.929 278.865 114.21 279.16L114.72 277.67C113.647 276.939 112.532 276.271 111.38 275.67C107.79 274.07 103.86 272.31 104.32 267.78C104.532 266.454 105.029 265.19 105.777 264.075C106.524 262.96 107.504 262.02 108.65 261.32C110.573 260.327 112.774 260.007 114.9 260.411C117.026 260.815 118.956 261.92 120.38 263.55Z" fill="#262727"/>
<path d="M125.14 267.89C125.14 265.08 124.79 262.2 125.28 259.47C125.53 258.11 127.28 257.04 128.41 255.84C129.26 256.95 130.2 258.02 130.94 259.2C132 260.88 132.84 262.68 133.94 264.35C135.25 266.41 136.51 268.1 133.49 270.08C132.79 270.647 132.23 271.368 131.854 272.186C131.477 273.005 131.295 273.899 131.32 274.8C131.52 276.27 133.49 277.49 134.63 278.86C135.77 280.23 136.63 281.42 137.63 282.7C136.16 283.4 134.69 284.7 133.24 284.7C128.6 284.61 125.87 281.81 125.34 277.32C125.132 274.181 125.108 271.032 125.27 267.89H125.14Z" fill="#262728"/>
<path d="M288.9 268.39C288.9 272.55 289.14 276.74 288.77 280.87C288.65 282.2 286.92 283.38 285.93 284.63C284.93 283.37 283.12 282.14 283.08 280.86C282.82 272.54 282.82 264.207 283.08 255.86C283.08 254.58 284.95 253.35 285.94 252.1C286.94 253.36 288.65 254.55 288.77 255.88C289.14 260.04 288.9 264.23 288.9 268.39Z" fill="#262626"/>
</svg>
